<?xml version="1.0" encoding="UTF-8" standalone="no"?>
<!-- Created with Inkscape (http://www.inkscape.org/) -->

<svg
   width="512"
   height="512"
   viewBox="0 0 135.46666 135.46667"
   version="1.1"
   id="svg1"
   xml:space="preserve"
   inkscape:version="1.4.4 (dcaf3e7d9e, 2026-05-05)"
   sodipodi:docname="idreader.svg"
   xmlns:inkscape="http://www.inkscape.org/namespaces/inkscape"
   xmlns:sodipodi="http://sodipodi.sourceforge.net/DTD/sodipodi-0.dtd"
   xmlns="http://www.w3.org/2000/svg"
   xmlns:svg="http://www.w3.org/2000/svg"><sodipodi:namedview
     id="namedview1"
     pagecolor="#ffffff"
     bordercolor="#000000"
     borderopacity="0.25"
     inkscape:showpageshadow="2"
     inkscape:pageopacity="0.0"
     inkscape:pagecheckerboard="true"
     inkscape:deskcolor="#d1d1d1"
     inkscape:document-units="mm"
     inkscape:zoom="1.0860582"
     inkscape:cx="-27.622828"
     inkscape:cy="213.61654"
     inkscape:window-width="2524"
     inkscape:window-height="1285"
     inkscape:window-x="0"
     inkscape:window-y="0"
     inkscape:window-maximized="0"
     inkscape:current-layer="layer1" /><defs
     id="defs1" /><g
     inkscape:label="Calque 1"
     inkscape:groupmode="layer"
     id="layer1"><g
       style="fill:#ffffff;fill-opacity:1"
       id="g1"
       transform="matrix(0.09889257,0,0,0.09889257,4.906738,115.20177)"><path
         d="m 560,-440 h 200 v -80 H 560 Z m 0,-120 h 200 v -80 H 560 Z m -360,240 h 320 v -22 q 0,-45 -44,-71.5 -44,-26.5 -116,-26.5 -72,0 -116,26.5 -44,26.5 -44,71.5 z M 416.5,-503.5 Q 440,-527 440,-560 440,-593 416.5,-616.5 393,-640 360,-640 q -33,0 -56.5,23.5 -23.5,23.5 -23.5,56.5 0,33 23.5,56.5 23.5,23.5 56.5,23.5 33,0 56.5,-23.5 z M 160,-160 q -33,0 -56.5,-23.5 Q 80,-207 80,-240 v -480 q 0,-33 23.5,-56.5 Q 127,-800 160,-800 h 640 q 33,0 56.5,23.5 23.5,23.5 23.5,56.5 v 480 q 0,33 -23.5,56.5 Q 833,-160 800,-160 Z m 0,-80 H 800 V -720 H 160 Z m 0,0 v -480 z"
         id="path1"
         style="fill:#ffffff;fill-opacity:1" /></g><path
       id="path2"
       style="fill:#ffffff;fill-opacity:1;stroke:none;stroke-width:4.66084"
       d="m 125.25652,45.042786 -6.59297,3.392857 c 1.06914,2.968853 1.87112,6.07858 2.40568,9.330183 0.53456,3.2516 0.8017,6.57418 0.8017,9.967155 0,3.392976 -0.26714,6.715557 -0.8017,9.967158 -0.53456,3.251602 -1.33654,6.361329 -2.40568,9.330184 l 6.59297,3.393541 c 1.24732,-3.534349 2.18284,-7.193033 2.80651,-10.974787 0.62367,-3.781753 0.93551,-7.686937 0.93551,-11.716096 0,-4.029156 -0.31184,-7.934341 -0.93551,-11.716093 -0.62367,-3.781754 -1.55919,-7.439752 -2.80651,-10.974102 z m -11.58252,5.72523 -6.59295,3.18076 c 0.83154,2.120609 1.42581,4.329826 1.78219,6.627154 0.35638,2.297328 0.53465,4.683008 0.53465,7.157051 0,2.474045 -0.17827,4.859725 -0.53465,7.157053 -0.35638,2.297326 -0.95065,4.506544 -1.78219,6.627155 l 6.59295,3.180759 c 1.00973,-2.686106 1.73756,-5.442908 2.18305,-8.270386 0.44546,-2.827479 0.66788,-5.725725 0.66788,-8.694581 0,-2.968852 -0.22242,-5.867099 -0.66788,-8.694577 -0.44549,-2.827481 -1.17332,-5.584282 -2.18305,-8.270388 z m -11.40373,5.725917 -6.593541,3.180758 c 0.356377,1.272367 0.653509,2.580388 0.891095,3.923441 0.237583,1.343052 0.356436,2.721111 0.356436,4.134849 0,1.413741 -0.118853,2.792486 -0.356436,4.135537 -0.237586,1.343054 -0.534718,2.650389 -0.891095,3.922755 l 6.593541,3.180758 c 0.53457,-1.696487 0.96469,-3.481369 1.29138,-5.354575 0.32668,-1.873206 0.49024,-3.83455 0.49024,-5.884475 0,-2.049922 -0.16356,-4.011266 -0.49024,-5.884472 -0.32669,-1.873205 -0.75681,-3.658089 -1.29138,-5.354576 z" /></g></svg>
